# This file uses centimeters as units for non-parametric coordinates.

g default
v -6.559508 0.001002 4.262653
v -9.269443 -0.002341 4.324814
v -9.245689 -0.281796 3.639723
v -9.158130 -0.551276 3.639723
v -9.016456 -0.796663 3.639723
v -8.826859 -1.007232 3.639723
v -8.597625 -1.173780 3.639723
v -8.338774 -1.289028 3.639723
v -8.061617 -1.347939 3.639723
v -7.778269 -1.347939 3.639723
v -7.501112 -1.289028 3.639723
v -7.242261 -1.173780 3.639723
v -7.013028 -1.007232 3.639723
v -6.823431 -0.796663 3.639723
v -6.681756 -0.551276 3.639723
v -6.594197 -0.281796 3.639723
v -6.564580 -0.000000 -4.182861
v -9.275307 -0.000000 -4.182861
v -9.245689 -0.281796 -4.182861
v -9.158130 -0.551276 -4.182861
v -9.016456 -0.796663 -4.182861
v -8.826859 -1.007232 -4.182861
v -8.597625 -1.173780 -4.182861
v -8.338774 -1.289028 -4.182861
v -8.061617 -1.347939 -4.182861
v -7.778269 -1.347939 -4.182861
v -7.501112 -1.289028 -4.182861
v -7.242261 -1.173780 -4.182861
v -7.013028 -1.007232 -4.182861
v -6.823431 -0.796663 -4.182861
v -6.681756 -0.551276 -4.182861
v -6.594197 -0.281796 -4.182861
v -9.233320 -0.286390 4.323331
v -9.145184 -0.555641 4.320524
v -9.003019 -0.800665 4.316545
v -8.813041 -1.010755 4.311567
v -8.583553 -1.176729 4.305808
v -8.324584 -1.291333 4.299521
v -8.047451 -1.349558 4.292978
v -7.764269 -1.348859 4.286468
v -7.487412 -1.289267 4.280274
v -7.228981 -1.173386 4.274666
v -7.000270 -1.006281 4.269891
v -6.811276 -0.795256 4.266157
v -6.670257 -0.549532 4.263626
v -6.583378 -0.279850 4.262410
v -6.632349 -0.000000 -4.182861
v -9.207539 -0.000000 -4.182861
v -9.179401 -0.267706 -4.182861
v -9.096220 -0.523712 -4.182861
v -8.961630 -0.756830 -4.182861
v -8.781512 -0.956870 -4.182861
v -8.563741 -1.115090 -4.182861
v -8.317832 -1.224576 -4.182861
v -8.054534 -1.280542 -4.182861
v -7.785353 -1.280542 -4.182861
v -7.522054 -1.224576 -4.182861
v -7.276145 -1.115090 -4.182861
v -7.058373 -0.956870 -4.182861
v -6.878256 -0.756830 -4.182861
v -6.743666 -0.523712 -4.182861
v -6.660485 -0.267706 -4.182861
v -6.627264 0.000861 4.262889
v -9.201706 -0.002219 4.323490
v -9.179401 -0.267706 3.639723
v -9.096220 -0.523712 3.639723
v -8.961630 -0.756830 3.639723
v -8.781512 -0.956870 3.639723
v -8.563741 -1.115090 3.639723
v -8.317832 -1.224576 3.639723
v -8.054534 -1.280542 3.639723
v -7.785353 -1.280542 3.639723
v -7.522054 -1.224576 3.639723
v -7.276145 -1.115090 3.639723
v -7.058373 -0.956870 3.639723
v -6.878256 -0.756830 3.639723
v -6.743666 -0.523712 3.639723
v -6.660485 -0.267706 3.639723
v -6.649696 -0.266038 4.262879
v -6.732251 -0.522230 4.264024
v -6.866236 -0.755658 4.266420
v -7.045797 -0.956120 4.269961
v -7.263085 -1.114853 4.274491
v -7.508604 -1.224922 4.279813
v -7.771623 -1.281515 4.285696
v -8.040648 -1.282159 4.291880
v -8.303919 -1.226825 4.298097
v -8.549932 -1.117933 4.304073
v -8.767934 -0.960241 4.309549
v -8.948399 -0.760642 4.314285
v -9.083437 -0.527858 4.318074
v -9.167148 -0.272063 4.320750
vt 0.500000 0.250000
vt 0.500000 0.494040
vt 0.500000 0.250000
vt 0.533333 0.500000
vt 0.533333 0.250000
vt 0.566667 0.500000
vt 0.566667 0.250000
vt 0.600000 0.500000
vt 0.600000 0.250000
vt 0.633333 0.500000
vt 0.633333 0.250000
vt 0.666667 0.500000
vt 0.666667 0.250000
vt 0.700000 0.500000
vt 0.700000 0.250000
vt 0.733334 0.500000
vt 0.733334 0.250000
vt 0.766667 0.500000
vt 0.766667 0.250000
vt 0.800000 0.500000
vt 0.800000 0.250000
vt 0.833334 0.500000
vt 0.833334 0.250000
vt 0.866667 0.500000
vt 0.866667 0.250000
vt 0.900000 0.500000
vt 0.900000 0.250000
vt 0.933334 0.500000
vt 0.933334 0.250000
vt 0.966667 0.500000
vt 0.966667 0.250000
vt 1.000000 0.494040
vt 0.533333 0.488079
vt 0.566667 0.488079
vt 0.600000 0.488079
vt 0.633333 0.488079
vt 0.666667 0.488079
vt 0.700000 0.488079
vt 0.733334 0.488079
vt 0.766667 0.488079
vt 0.800000 0.488079
vt 0.833334 0.488079
vt 0.866667 0.488079
vt 0.900000 0.488079
vt 0.933334 0.488079
vt 0.966667 0.488079
vt 0.500000 1.000000
vt 0.500000 1.000000
vt 0.500000 0.755978
vt 0.533333 1.000000
vt 0.533333 0.750000
vt 0.566667 1.000000
vt 0.566667 0.750000
vt 0.600000 1.000000
vt 0.600000 0.750000
vt 0.633333 1.000000
vt 0.633333 0.750000
vt 0.666667 1.000000
vt 0.666667 0.750000
vt 0.700000 1.000000
vt 0.700000 0.750000
vt 0.733334 1.000000
vt 0.733334 0.750000
vt 0.766667 1.000000
vt 0.766667 0.750000
vt 0.800000 1.000000
vt 0.800000 0.750000
vt 0.833334 1.000000
vt 0.833334 0.750000
vt 0.866667 1.000000
vt 0.866667 0.750000
vt 0.900000 1.000000
vt 0.900000 0.750000
vt 0.933334 1.000000
vt 0.933334 0.750000
vt 0.966667 1.000000
vt 0.966667 0.750000
vt 1.000000 0.755978
vt 0.966667 0.761957
vt 0.933334 0.761957
vt 0.900000 0.761957
vt 0.866667 0.761957
vt 0.833334 0.761957
vt 0.800000 0.761957
vt 0.766667 0.761957
vt 0.733334 0.761957
vt 0.700000 0.761957
vt 0.666667 0.761957
vt 0.633333 0.761957
vt 0.600000 0.761957
vt 0.566667 0.761957
vt 0.533333 0.761957
vn -0.978938 -0.204155 0.001146
vn -0.978896 -0.204355 0.001147
vn -0.995347 -0.096353 0.001027
vn -0.995347 -0.096353 0.001027
vn -0.978938 -0.204155 0.001146
vn -0.913515 -0.406804 0.001180
vn -0.913472 -0.406900 0.001180
vn -0.913515 -0.406804 0.001180
vn -0.808978 -0.587839 0.001001
vn -0.808955 -0.587870 0.001001
vn -0.808978 -0.587839 0.001001
vn -0.669087 -0.743184 0.000779
vn -0.669099 -0.743173 0.000779
vn -0.669087 -0.743184 0.000779
vn -0.499953 -0.866052 0.000527
vn -0.500003 -0.866024 0.000527
vn -0.499953 -0.866053 0.000527
vn -0.308967 -0.951073 0.000257
vn -0.309045 -0.951047 0.000257
vn -0.308967 -0.951073 0.000257
vn -0.104476 -0.994527 -0.000016
vn -0.104565 -0.994518 -0.000016
vn -0.104476 -0.994527 -0.000016
vn 0.104582 -0.994516 -0.000282
vn 0.104504 -0.994524 -0.000282
vn 0.104582 -0.994516 -0.000282
vn 0.309071 -0.951039 -0.000528
vn 0.309024 -0.951054 -0.000528
vn 0.309071 -0.951039 -0.000528
vn 0.500053 -0.865995 -0.000746
vn 0.500051 -0.865996 -0.000746
vn 0.500053 -0.865995 -0.000746
vn 0.669179 -0.743100 -0.000928
vn 0.669225 -0.743060 -0.000928
vn 0.669179 -0.743100 -0.000928
vn 0.809059 -0.587726 -0.001068
vn 0.809140 -0.587615 -0.001068
vn 0.809059 -0.587726 -0.001068
vn 0.913577 -0.406663 -0.001161
vn 0.913668 -0.406459 -0.001161
vn 0.913577 -0.406663 -0.001161
vn 0.977413 -0.211335 -0.001058
vn 0.977478 -0.211037 -0.001058
vn 0.977413 -0.211335 -0.001058
vn 0.993730 -0.111807 -0.000916
vn 0.993730 -0.111807 -0.000916
vn 0.978980 0.203952 -0.001140
vn 0.978980 0.203952 -0.001140
vn 0.995386 0.095944 -0.001021
vn 0.995386 0.095944 -0.001021
vn 0.978978 0.203962 -0.001140
vn 0.913516 0.406800 -0.001174
vn 0.913516 0.406800 -0.001174
vn 0.913484 0.406873 -0.001174
vn 0.808980 0.587836 -0.000995
vn 0.808980 0.587836 -0.000995
vn 0.808972 0.587847 -0.000995
vn 0.669088 0.743183 -0.000773
vn 0.669088 0.743183 -0.000773
vn 0.669119 0.743155 -0.000774
vn 0.499954 0.866052 -0.000522
vn 0.499954 0.866052 -0.000522
vn 0.500025 0.866011 -0.000522
vn 0.308969 0.951072 -0.000254
vn 0.308969 0.951072 -0.000254
vn 0.309071 0.951039 -0.000254
vn 0.104478 0.994527 0.000019
vn 0.104478 0.994527 0.000019
vn 0.104593 0.994515 0.000019
vn -0.104581 0.994516 0.000285
vn -0.104581 0.994516 0.000285
vn -0.104476 0.994527 0.000285
vn -0.309070 0.951039 0.000531
vn -0.309070 0.951039 0.000531
vn -0.308998 0.951063 0.000531
vn -0.500051 0.865996 0.000749
vn -0.500051 0.865996 0.000749
vn -0.500027 0.866010 0.000749
vn -0.669179 0.743101 0.000931
vn -0.669179 0.743101 0.000931
vn -0.669204 0.743078 0.000931
vn -0.809058 0.587728 0.001071
vn -0.809058 0.587728 0.001071
vn -0.809123 0.587639 0.001071
vn -0.913576 0.406666 0.001165
vn -0.913576 0.406666 0.001165
vn -0.913656 0.406487 0.001165
vn -0.977365 0.211556 0.001060
vn -0.977365 0.211556 0.001060
vn -0.977418 0.211312 0.001060
vn -0.993680 0.112243 0.000917
vn -0.993680 0.112243 0.000917
vn 0.000000 0.000000 -1.000000
vn 0.000000 0.000000 -1.000000
vn 0.000000 0.000000 -1.000000
vn 0.000000 0.000000 -1.000000
vn 0.000001 0.000000 -1.000000
vn 0.000001 0.000000 -1.000000
vn -0.000000 0.000000 -1.000000
vn -0.000000 0.000000 -1.000000
vn 0.000000 0.000000 -1.000000
vn 0.000000 0.000000 -1.000000
vn 0.000000 0.000000 -1.000000
vn 0.000000 0.000000 -1.000000
vn -0.000000 0.000000 -1.000000
vn -0.000000 0.000000 -1.000000
vn 0.000000 0.000000 -1.000000
vn 0.000000 0.000000 -1.000000
vn 0.000000 0.000000 -1.000000
vn 0.000000 0.000000 -1.000000
vn -0.000000 0.000000 -1.000000
vn -0.000000 0.000000 -1.000000
vn -0.000000 0.000000 -1.000000
vn -0.000000 0.000000 -1.000000
vn 0.000001 0.000000 -1.000000
vn 0.000001 0.000000 -1.000000
vn 0.000001 0.000000 -1.000000
vn 0.000001 0.000000 -1.000000
vn 0.000000 0.000000 -1.000000
vn 0.000000 0.000000 -1.000000
vn 0.000000 0.000000 -1.000000
vn 0.000000 0.000000 -1.000000
vn 0.000000 0.000000 -1.000000
vn 0.000000 0.000000 -1.000000
vn -0.001040 1.000000 -0.000110
vn -0.001040 1.000000 -0.000110
vn -0.001040 0.999999 -0.000110
vn -0.001040 1.000000 -0.000110
vn -0.000898 1.000000 0.000269
vn -0.000898 1.000000 0.000269
vn -0.000898 1.000000 0.000269
vn -0.000898 1.000000 0.000269
vn 0.005163 -0.000897 0.999986
vn 0.005163 -0.000897 0.999986
vn 0.005163 -0.000897 0.999986
vn 0.005163 -0.000897 0.999986
vn 0.007420 0.002099 0.999970
vn 0.007420 0.002099 0.999970
vn 0.007420 0.002099 0.999970
vn 0.007420 0.002099 0.999970
vn 0.008695 0.005295 0.999948
vn 0.008695 0.005295 0.999948
vn 0.008695 0.005295 0.999948
vn 0.008695 0.005295 0.999948
vn 0.010613 0.008173 0.999910
vn 0.010613 0.008173 0.999910
vn 0.010613 0.008173 0.999910
vn 0.010613 0.008173 0.999910
vn 0.013129 0.010592 0.999858
vn 0.013129 0.010592 0.999858
vn 0.013129 0.010592 0.999858
vn 0.013129 0.010592 0.999858
vn 0.016112 0.012427 0.999793
vn 0.016112 0.012427 0.999793
vn 0.016112 0.012427 0.999793
vn 0.016112 0.012427 0.999793
vn 0.019443 0.013575 0.999719
vn 0.019443 0.013575 0.999719
vn 0.019443 0.013575 0.999719
vn 0.019443 0.013575 0.999719
vn 0.022949 0.013972 0.999639
vn 0.022949 0.013972 0.999639
vn 0.022949 0.013972 0.999639
vn 0.022949 0.013972 0.999639
vn 0.026455 0.013601 0.999558
vn 0.026455 0.013601 0.999557
vn 0.026455 0.013601 0.999557
vn 0.026455 0.013601 0.999558
vn 0.029800 0.012483 0.999478
vn 0.029800 0.012483 0.999478
vn 0.029800 0.012483 0.999478
vn 0.029800 0.012483 0.999478
vn 0.032811 0.010674 0.999405
vn 0.032811 0.010674 0.999405
vn 0.032811 0.010674 0.999405
vn 0.032811 0.010674 0.999405
vn 0.035349 0.008269 0.999341
vn 0.035349 0.008269 0.999341
vn 0.035349 0.008269 0.999341
vn 0.035349 0.008269 0.999341
vn 0.037297 0.005392 0.999290
vn 0.037297 0.005392 0.999290
vn 0.037297 0.005392 0.999290
vn 0.037297 0.005392 0.999290
vn 0.038575 0.002191 0.999253
vn 0.038575 0.002191 0.999253
vn 0.038575 0.002191 0.999253
vn 0.038575 0.002191 0.999253
vn 0.029569 -0.003847 0.999555
vn 0.029569 -0.003847 0.999555
vn 0.029569 -0.003847 0.999555
vn 0.029569 -0.003847 0.999555
g polySurface22 polySurface18
f 3/4/1 33/33/2 2/2/3 18/3/4 19/5/5
f 4/6/6 34/34/7 33/33/2 3/4/1 19/5/5 20/7/8
f 5/8/9 35/35/10 34/34/7 4/6/6 20/7/8 21/9/11
f 6/10/12 36/36/13 35/35/10 5/8/9 21/9/11 22/11/14
f 7/12/15 37/37/16 36/36/13 6/10/12 22/11/14 23/13/17
f 8/14/18 38/38/19 37/37/16 7/12/15 23/13/17 24/15/20
f 9/16/21 39/39/22 38/38/19 8/14/18 24/15/20 25/17/23
f 10/18/24 40/40/25 39/39/22 9/16/21 25/17/23 26/19/26
f 11/20/27 41/41/28 40/40/25 10/18/24 26/19/26 27/21/29
f 12/22/30 42/42/31 41/41/28 11/20/27 27/21/29 28/23/32
f 13/24/33 43/43/34 42/42/31 12/22/30 28/23/32 29/25/35
f 14/26/36 44/44/37 43/43/34 13/24/33 29/25/35 30/27/38
f 15/28/39 45/45/40 44/44/37 14/26/36 30/27/38 31/29/41
f 16/30/42 46/46/43 45/45/40 15/28/39 31/29/41 32/31/44
f 1/32/45 46/46/43 16/30/42 32/31/44 17/1/46
f 65/51/47 49/50/48 48/48/49 64/49/50 92/92/51
f 66/53/52 50/52/53 49/50/48 65/51/47 92/92/51 91/91/54
f 67/55/55 51/54/56 50/52/53 66/53/52 91/91/54 90/90/57
f 68/57/58 52/56/59 51/54/56 67/55/55 90/90/57 89/89/60
f 69/59/61 53/58/62 52/56/59 68/57/58 89/89/60 88/88/63
f 70/61/64 54/60/65 53/58/62 69/59/61 88/88/63 87/87/66
f 71/63/67 55/62/68 54/60/65 70/61/64 87/87/66 86/86/69
f 72/65/70 56/64/71 55/62/68 71/63/67 86/86/69 85/85/72
f 73/67/73 57/66/74 56/64/71 72/65/70 85/85/72 84/84/75
f 74/69/76 58/68/77 57/66/74 73/67/73 84/84/75 83/83/78
f 75/71/79 59/70/80 58/68/77 74/69/76 83/83/78 82/82/81
f 76/73/82 60/72/83 59/70/80 75/71/79 82/82/81 81/81/84
f 77/75/85 61/74/86 60/72/83 76/73/82 81/81/84 80/80/87
f 78/77/88 62/76/89 61/74/86 77/75/85 80/80/87 79/79/90
f 63/78/91 47/47/92 62/76/89 78/77/88 79/79/90
f 17/1/93 32/31/94 62/76/95 47/47/96
f 32/31/94 31/29/97 61/74/98 62/76/95
f 31/29/97 30/27/99 60/72/100 61/74/98
f 30/27/99 29/25/101 59/70/102 60/72/100
f 29/25/101 28/23/103 58/68/104 59/70/102
f 28/23/103 27/21/105 57/66/106 58/68/104
f 27/21/105 26/19/107 56/64/108 57/66/106
f 26/19/107 25/17/109 55/62/110 56/64/108
f 25/17/109 24/15/111 54/60/112 55/62/110
f 24/15/111 23/13/113 53/58/114 54/60/112
f 23/13/113 22/11/115 52/56/116 53/58/114
f 22/11/115 21/9/117 51/54/118 52/56/116
f 21/9/117 20/7/119 50/52/120 51/54/118
f 20/7/119 19/5/121 49/50/122 50/52/120
f 19/5/121 18/3/123 48/48/124 49/50/122
f 1/32/125 17/1/126 47/47/127 63/78/128
f 18/3/129 2/2/130 64/49/131 48/48/132
f 46/46/133 1/32/134 63/78/135 79/79/136
f 45/45/137 46/46/138 79/79/139 80/80/140
f 44/44/141 45/45/142 80/80/143 81/81/144
f 43/43/145 44/44/146 81/81/147 82/82/148
f 42/42/149 43/43/150 82/82/151 83/83/152
f 41/41/153 42/42/154 83/83/155 84/84/156
f 40/40/157 41/41/158 84/84/159 85/85/160
f 39/39/161 40/40/162 85/85/163 86/86/164
f 38/38/165 39/39/166 86/86/167 87/87/168
f 37/37/169 38/38/170 87/87/171 88/88/172
f 36/36/173 37/37/174 88/88/175 89/89/176
f 35/35/177 36/36/178 89/89/179 90/90/180
f 34/34/181 35/35/182 90/90/183 91/91/184
f 33/33/185 34/34/186 91/91/187 92/92/188
f 2/2/189 33/33/190 92/92/191 64/49/192
